<?xml version="1.0" standalone="no"?>
<!DOCTYPE svg PUBLIC "-//W3C//DTD SVG 20010904//EN"
 "http://www.w3.org/TR/2001/REC-SVG-20010904/DTD/svg10.dtd">
<svg version="1.0" xmlns="http://www.w3.org/2000/svg"
 width="626.000000pt" height="626.000000pt" viewBox="0 0 626.000000 626.000000"
 preserveAspectRatio="xMidYMid meet">

<g transform="translate(0.000000,626.000000) scale(0.100000,-0.100000)"
fill="#000000" stroke="none">
<path d="M1741 6123 c-241 -244 -504 -572 -605 -755 -49 -90 -139 -243 -148
-253 -10 -11 5 33 22 65 7 12 -25 -2 -92 -42 -255 -151 -512 -354 -770 -609
l-148 -146 0 -1250 0 -1250 123 -125 c146 -150 280 -268 442 -393 126 -97 308
-225 319 -225 4 0 66 -35 139 -78 176 -103 261 -131 462 -153 117 -12 231 -7
385 17 85 13 128 23 250 54 l35 10 -129 132 c-71 73 -135 133 -143 134 -29 5
-73 30 -73 43 0 8 6 11 15 7 23 -8 18 6 -12 40 -16 17 -48 53 -72 80 -24 27
-49 48 -55 46 -6 -2 -8 0 -4 3 4 4 -1 15 -10 24 -11 10 -12 12 -2 6 8 -5 4 3
-9 18 -25 28 -38 36 -25 15 4 -7 3 -8 -5 -4 -6 4 -9 11 -7 14 6 11 -93 126
-139 162 -110 86 -512 475 -617 598 -31 37 -67 78 -79 92 -12 14 -33 41 -48
60 -14 19 -34 43 -43 54 -38 42 -119 168 -163 254 -43 83 -48 99 -52 179 -5
74 -10 94 -31 123 -76 104 -307 385 -371 453 -40 42 -70 77 -65 77 30 0 222
-152 373 -295 l88 -84 7 132 c21 413 106 828 250 1213 80 217 235 551 243 527
2 -7 0 -20 -6 -30 -19 -36 -50 -179 -61 -283 -13 -114 -8 -239 16 -390 13 -85
23 -128 54 -250 l9 -35 133 130 133 130 3 65 c4 99 7 107 47 114 24 5 35 12
35 24 0 12 4 10 13 -8 7 -13 23 -30 36 -36 17 -9 20 -14 9 -20 -7 -5 -17 -9
-23 -9 -5 -1 -9 -6 -7 -13 1 -7 -2 -12 -8 -12 -5 0 -10 -5 -10 -12 0 -7 16 3
35 22 20 19 33 40 31 47 -3 7 -1 13 3 13 5 0 11 -5 13 -10 2 -6 17 3 33 20 23
24 26 30 10 24 -11 -4 -17 -4 -14 0 4 4 17 9 29 11 29 6 61 35 53 48 -3 5 -1
7 4 4 13 -8 125 82 117 94 -3 5 0 8 8 7 7 -2 12 3 10 10 -1 8 2 11 8 7 5 -3
65 38 132 92 273 220 411 327 968 748 391 295 632 487 733 584 42 40 77 70 77
65 0 -16 -71 -116 -144 -204 -110 -132 -385 -408 -816 -818 -471 -448 -861
-832 -855 -842 6 -9 -20 -32 -27 -25 -3 3 -48 -42 -101 -99 -53 -57 -93 -107
-89 -111 4 -3 2 -5 -4 -3 -6 2 -42 -30 -79 -69 -37 -40 -64 -73 -60 -73 4 0 0
-11 -9 -26 -15 -22 -15 -29 -4 -55 16 -35 28 -38 28 -5 0 31 15 36 110 36 43
0 81 4 84 9 3 4 26 14 51 21 25 7 60 26 77 41 29 28 34 29 132 29 93 0 151 13
119 27 -7 2 -13 9 -13 15 0 6 6 5 15 -2 10 -8 13 -20 9 -34 -6 -18 -5 -19 9
-7 9 7 14 17 11 22 -3 5 0 9 5 9 17 0 15 -4 -51 -100 -63 -92 -78 -138 -17
-54 52 72 150 174 192 201 21 13 41 33 45 43 8 21 148 140 164 140 5 0 34 25
64 55 30 30 59 55 64 55 6 0 10 5 10 12 0 7 11 23 24 37 12 15 30 45 39 68 9
24 25 51 34 61 33 34 63 72 57 72 -14 0 53 73 75 82 59 22 113 26 157 11 24
-8 46 -18 49 -23 3 -4 -30 -31 -73 -61 -93 -63 -86 -58 -81 -64 3 -2 30 8 60
23 31 15 76 34 100 42 24 8 55 20 69 27 14 7 56 13 93 13 63 0 115 -14 179
-50 10 -6 24 -10 31 -10 8 0 33 -13 58 -28 98 -62 199 -120 199 -114 0 4 -20
19 -43 33 -23 15 -115 74 -205 133 -89 59 -229 145 -310 192 -81 47 -151 89
-155 93 -9 9 191 249 223 269 43 26 71 1 222 -201 124 -167 184 -249 223 -309
6 -8 23 -35 38 -59 43 -67 90 -133 98 -139 3 -3 13 -19 22 -35 8 -17 24 -39
36 -49 11 -10 18 -23 15 -28 -3 -4 0 -7 7 -6 7 2 14 -4 15 -12 3 -36 5 -40 17
-40 6 0 28 -15 47 -33 19 -17 37 -32 41 -32 14 0 84 -60 145 -122 34 -35 66
-63 72 -63 15 0 104 -91 165 -168 28 -36 53 -60 55 -54 3 11 -101 166 -119
177 -5 4 -9 11 -9 17 0 7 4 7 13 -1 8 -6 18 -7 22 -3 5 4 5 -1 2 -10 -4 -12 3
-24 24 -39 l30 -21 18 20 c14 17 25 20 59 15 23 -3 42 -10 42 -14 0 -5 54 -9
120 -9 l120 0 0 -35 0 -35 78 0 c75 0 79 -1 110 -33 18 -18 32 -38 32 -45 0
-6 8 -9 18 -7 9 3 2 -2 -16 -10 -30 -14 -33 -19 -27 -46 7 -29 -11 -125 -27
-143 -13 -16 -9 -59 8 -81 37 -50 71 -233 45 -249 -4 -3 -12 -20 -16 -38 -11
-46 -12 -49 -25 -83 l-12 -30 -25 30 -26 30 6 -54 c4 -30 13 -61 21 -69 12
-13 18 -9 41 27 14 23 30 52 36 64 5 12 35 63 65 112 65 107 184 343 184 366
0 9 -7 22 -15 29 -8 7 -12 16 -9 21 3 5 2 8 -3 7 -5 -2 -36 26 -68 62 -121
131 -193 209 -304 330 -172 189 -671 683 -1088 1078 -205 195 -373 359 -373
365 0 7 16 36 35 65 l36 52 47 -32 c153 -104 931 -704 1201 -926 41 -34 79
-58 84 -55 6 3 7 1 4 -4 -8 -13 26 -45 44 -41 8 2 13 -2 12 -8 -1 -6 21 -31
50 -55 29 -24 43 -32 32 -18 l-20 24 23 -19 c12 -11 22 -23 22 -28 0 -12 72
-74 82 -71 4 2 8 0 8 -5 0 -4 14 -7 30 -7 28 0 30 2 30 40 0 51 16 80 24 44 6
-28 14 -177 8 -160 -2 6 -8 11 -14 11 -6 0 -5 -6 2 -15 7 -9 19 -14 27 -11 8
4 11 1 8 -5 -8 -12 237 -251 246 -241 21 23 72 302 85 457 10 135 -28 414 -67
488 -6 10 -8 23 -6 30 3 7 34 -49 70 -123 253 -526 383 -1010 420 -1568 l12
-173 105 96 c165 152 323 275 352 275 6 0 -19 -30 -55 -68 -73 -75 -178 -200
-314 -372 l-90 -115 -5 -93 c-5 -84 -9 -99 -48 -175 -52 -101 -146 -238 -253
-372 -100 -123 -419 -445 -624 -628 -83 -74 -148 -139 -145 -143 4 -4 1 -4 -6
0 -16 9 -46 -20 -36 -35 4 -7 3 -9 -3 -6 -13 8 -46 -27 -36 -38 5 -4 3 -5 -4
-1 -14 7 -36 -27 -25 -39 4 -3 2 -5 -4 -3 -16 4 -55 -42 -47 -55 3 -5 1 -7 -5
-4 -5 4 -22 -7 -36 -24 -25 -29 -28 -37 -30 -83 -1 -11 -8 -21 -16 -24 -13 -5
-13 -3 0 14 14 18 14 18 -2 5 -14 -10 -15 -18 -7 -32 5 -10 14 -19 19 -19 6 0
10 -67 10 -170 0 -144 2 -170 15 -170 11 0 15 -12 15 -45 0 -34 4 -45 16 -45
13 0 15 -10 12 -60 -2 -41 1 -60 9 -60 17 0 174 62 303 120 460 206 905 516
1279 891 l131 131 0 1248 0 1247 -152 151 c-264 260 -507 452 -801 631 l-67
41 20 -41 c12 -22 19 -43 17 -45 -4 -4 -58 86 -159 265 -105 185 -368 512
-600 744 l-138 137 -1251 0 -1251 0 -137 -137z m3141 -1611 c-7 -2 -9 -8 -6
-13 3 -6 11 -5 20 2 8 6 17 9 21 5 3 -3 0 -6 -8 -6 -11 0 -12 -2 -1 -9 11 -7
11 -9 -1 -14 -9 -3 -25 5 -38 20 -13 15 -18 23 -10 18 11 -6 13 -4 8 9 -11 28
5 43 17 16 8 -17 7 -25 -2 -28z m-217 -332 c3 -5 1 -10 -4 -10 -6 0 -11 5 -11
10 0 6 2 10 4 10 3 0 8 -4 11 -10z m36 -67 c13 -16 12 -17 -3 -4 -17 13 -22
21 -14 21 2 0 10 -8 17 -17z m-431 -54 c0 -5 -7 -9 -15 -9 -9 0 -12 6 -9 15 6
15 24 11 24 -6z m520 -14 c13 -14 21 -25 18 -25 -2 0 -15 11 -28 25 -13 14
-21 25 -18 25 2 0 15 -11 28 -25z m-3304 0 c-18 -14 -18 -15 -2 -15 9 0 14 -5
11 -10 -5 -8 -11 -8 -19 -1 -7 6 -17 7 -22 3 -5 -4 0 3 10 16 11 12 24 22 30
22 6 0 2 -7 -8 -15z"/>
<path d="M2751 4591 c-7 -5 -9 -11 -5 -14 5 -3 15 1 22 9 14 16 5 18 -17 5z"/>
<path d="M2677 4542 c-21 -15 -33 -28 -27 -30 6 -2 21 5 33 16 12 10 31 24 42
30 13 8 15 11 5 11 -8 -1 -32 -13 -53 -27z"/>
<path d="M1319 4433 c-13 -16 -12 -17 4 -4 16 13 21 21 13 21 -2 0 -10 -8 -17
-17z"/>
<path d="M1271 3838 c-66 -73 -121 -140 -121 -148 0 -39 220 -447 239 -443 6
2 7 -5 4 -14 -5 -12 -3 -14 7 -8 9 5 11 4 6 -4 -4 -6 9 -38 29 -71 36 -59 50
-76 38 -44 -3 9 -1 19 4 23 6 3 14 30 18 60 l7 54 -32 -37 c-25 -28 -35 -34
-41 -24 -5 7 -9 18 -9 23 0 6 4 4 9 -4 15 -24 20 5 5 33 -7 16 -14 43 -14 60
0 18 -6 38 -12 45 -18 17 -13 151 6 193 35 79 36 109 5 202 -14 41 -21 90 -22
148 -1 48 -3 88 -3 88 -1 0 -56 -60 -123 -132z"/>
<path d="M715 3270 c-8 -13 57 -130 70 -123 5 4 7 3 3 -2 -26 -29 263 -443
520 -745 182 -213 657 -707 862 -897 276 -256 386 -353 401 -353 23 0 244 111
419 210 157 89 413 251 406 257 -2 2 -25 -8 -52 -22 -88 -45 -320 -56 -409
-19 -21 8 -40 13 -43 10 -3 -3 -3 -7 -1 -9 2 -2 21 -16 42 -32 21 -15 35 -30
33 -33 -3 -3 -13 1 -23 9 -9 8 -14 9 -10 3 7 -12 -30 -35 -60 -38 -10 -2 -29
-5 -43 -9 -53 -15 -115 -15 -143 0 -29 15 -63 11 -52 -6 10 -17 -37 -34 -130
-47 -129 -19 -127 -20 -124 84 4 165 -2 263 -17 269 -8 3 -11 9 -8 15 6 9 16
-1 59 -59 11 -14 41 -49 68 -77 26 -28 47 -56 47 -63 0 -7 9 -13 19 -13 19 0
19 2 5 36 -9 21 -22 43 -30 51 -8 8 -14 20 -14 27 0 7 -15 33 -34 56 -19 24
-32 49 -29 57 3 7 -1 13 -8 13 -7 0 -9 3 -6 6 11 11 -14 46 -28 40 -8 -3 -17
-1 -20 4 -4 6 -2 10 2 10 5 0 9 9 10 19 2 19 -104 116 -197 181 -19 14 -46 37
-59 53 -14 16 -30 26 -38 23 -13 -6 -124 75 -131 95 -2 5 -11 9 -20 9 -9 0
-39 23 -67 51 -27 27 -65 59 -82 70 -18 11 -33 24 -33 29 0 4 -11 11 -25 14
-14 4 -45 27 -70 52 -26 25 -76 66 -112 91 -37 25 -101 73 -142 107 -42 35
-89 71 -106 82 -16 10 -68 48 -115 83 -47 36 -123 93 -170 128 -47 35 -101 75
-120 91 -19 15 -38 26 -42 24 -5 -1 -8 5 -8 13 0 7 -7 18 -16 23 -14 8 -11 14
22 45 38 35 39 36 19 51 -11 8 -34 16 -52 16 -22 0 -36 7 -43 20 -7 12 -16 17
-27 13 -12 -5 -14 -3 -8 8 6 11 5 12 -6 2 -16 -15 -33 -17 -24 -3 3 6 4 10 1
10 -3 0 -7 -4 -11 -10z m1540 -1830 c10 -11 16 -20 13 -20 -3 0 -13 9 -23 20
-10 11 -16 20 -13 20 3 0 13 -9 23 -20z m72 -47 c-4 -3 -2 -12 4 -20 18 -21 4
-15 -16 7 -17 19 -17 20 0 20 10 0 15 -3 12 -7z"/>
<path d="M5507 3260 c-14 -11 -49 -25 -77 -30 -28 -5 -56 -12 -61 -15 -16 -10
-10 -31 16 -55 14 -13 25 -29 25 -36 0 -15 -67 -73 -140 -122 -30 -19 -95 -68
-145 -107 -49 -39 -113 -85 -142 -104 -29 -18 -69 -48 -90 -67 -20 -19 -39
-34 -43 -34 -3 0 -16 -10 -30 -23 -14 -13 -56 -43 -95 -68 -38 -25 -93 -68
-122 -95 -28 -28 -62 -55 -76 -61 -13 -6 -67 -47 -118 -90 -52 -43 -98 -81
-104 -85 -5 -4 -34 -26 -63 -49 -29 -22 -60 -38 -67 -35 -8 3 -32 -15 -57 -42
-23 -26 -55 -54 -70 -62 -30 -17 -99 -74 -165 -136 -30 -28 -42 -46 -37 -57 3
-10 1 -17 -5 -17 -12 0 -37 -44 -43 -75 -1 -11 -12 -30 -23 -43 -11 -13 -20
-28 -20 -33 0 -5 -5 -13 -11 -17 -6 -4 -21 -26 -32 -49 l-20 -43 26 0 c21 0
36 12 62 48 28 37 41 47 65 47 l29 0 -3 -160 c-2 -128 -6 -163 -18 -177 -12
-13 -13 -21 -5 -31 9 -10 7 -17 -8 -29 -10 -9 -21 -14 -24 -11 -3 4 -6 1 -6
-5 0 -7 3 -12 6 -12 12 0 99 83 96 91 -1 5 4 8 10 7 7 -2 12 3 10 10 -1 8 2
11 7 7 17 -10 318 270 617 575 241 246 484 525 647 744 151 203 287 420 279
445 -3 8 0 11 5 8 6 -4 23 16 38 44 31 58 23 81 -18 49z m-1436 -1243 c-10 -9
-11 -8 -5 6 3 10 9 15 12 12 3 -3 0 -11 -7 -18z m-97 -122 c-14 -19 -29 -35
-31 -35 -5 0 7 18 36 53 26 31 23 18 -5 -18z m-74 -535 c0 -5 -8 -10 -17 -10
-15 0 -16 2 -3 10 19 12 20 12 20 0z"/>
<path d="M2470 1855 c14 -7 27 -11 30 -9 6 7 -22 24 -40 23 -9 0 -5 -6 10 -14z"/>
<path d="M2755 1670 c9 -15 45 -32 45 -22 0 5 -12 14 -26 20 -14 7 -23 8 -19
2z"/>
<path d="M3455 1660 c-3 -6 1 -7 9 -4 18 7 21 14 7 14 -6 0 -13 -4 -16 -10z"/>
<path d="M2422 1620 c0 -19 2 -27 5 -17 2 9 2 25 0 35 -3 9 -5 1 -5 -18z"/>
<path d="M3655 1559 c-4 -6 -5 -12 -2 -15 7 -7 37 7 37 17 0 13 -27 11 -35 -2z"/>
<path d="M3625 1500 c-3 -5 -1 -10 4 -10 6 0 11 5 11 10 0 6 -2 10 -4 10 -3 0
-8 -4 -11 -10z"/>
<path d="M4426 1341 c-21 -22 -25 -31 -14 -37 7 -4 10 -3 5 1 -4 5 5 21 20 37
15 15 24 28 22 28 -3 0 -18 -13 -33 -29z"/>
<path d="M4390 1290 c0 -5 5 -10 11 -10 5 0 7 5 4 10 -3 6 -8 10 -11 10 -2 0
-4 -4 -4 -10z"/>
<path d="M4339 1243 l-34 -36 40 28 c22 16 41 30 43 31 2 1 -1 5 -6 8 -5 3
-24 -11 -43 -31z"/>
<path d="M3770 1250 c-9 -6 -10 -10 -3 -10 6 0 15 5 18 10 8 12 4 12 -15 0z"/>
<path d="M3719 1203 c-13 -16 -12 -17 4 -4 16 13 21 21 13 21 -2 0 -10 -8 -17
-17z"/>
<path d="M4274 1178 l-19 -23 23 19 c21 18 27 26 19 26 -2 0 -12 -10 -23 -22z"/>
<path d="M4498 723 c7 -3 16 -2 19 1 4 3 -2 6 -13 5 -11 0 -14 -3 -6 -6z"/>
<path d="M4438 703 c7 -3 16 -2 19 1 4 3 -2 6 -13 5 -11 0 -14 -3 -6 -6z"/>
</g>
</svg>
